# xmcd
#
# Track frame offsets:
#	150
#	10302
#	21563
#	31460
#	47696
#	63422
#	74359
#	84694
#	101737
#	113998
#	136601
#	149476
#	161177
#	182904
#
# Disc length: 2627
#
# Revision: 1
# Processed by: cddbd v1.5.1PL0 Copyright (c) Steve Scherf et al.
# Submitted via: dBpowerAMP V4.0
# Normalized: r0:DSETVAR1,TDELIM( - )
#
DISCID=cd0a410e
DTITLE=Various Artist - The Fathers of Blues 1st vol.
DYEAR=1900
DGENRE=Blues
TTITLE0=Wilson Pickett - I'm Gonna Love You
TTITLE1=John Lee Hooker - Boom Boom
TTITLE2=Menphis Slim - Caledonia
TTITLE3=Skeleton Krew - Song For Frank
TTITLE4=Rufus Thomas - Come Here Mama
TTITLE5=Eddie Floyd - Raise Your Hand
TTITLE6=Fats Domino - Tell Me The Truth Baby
TTITLE7=Bo Didley - Mona (I Need You Baby)
TTITLE8=Lightning Slim - Rooster Blues
TTITLE9=Roberto Ciotti - Early On Suday
TTITLE10=Jimmy Reed - Caress Me Baby
TTITLE11=Ray Charles - Ray Charles Blues
TTITLE12=Eddie Floyd - On a Saturday Night
TTITLE13=Menphis Slim - Easy Blues
EXTD=The Fathers of Blues
EXTT0=
EXTT1=
EXTT2=
EXTT3=
EXTT4=
EXTT5=
EXTT6=
EXTT7=
EXTT8=
EXTT9=
EXTT10=
EXTT11=
EXTT12=
EXTT13=
PLAYORDER=
